<svg width="200" height="200" viewBox="0 0 200 200" fill="none" xmlns="http://www.w3.org/2000/svg">
<path d="M65.0931 82.1696L30.1266 100.159V64.1806L65.0931 82.1696Z" fill="#F8AA00"/>
<path d="M30.1266 100.159L65.0931 82.1696V118.145L30.1266 100.159Z" fill="#FFD000"/>
<path d="M65.0931 118.145L30.1266 136.134V100.159L65.0931 118.145Z" fill="#F07F3C"/>
<path d="M30.1266 136.134L65.0931 118.145V154.123L30.1266 136.134Z" fill="#E62D31"/>
<path d="M65.0931 46.1941L30.1266 64.1806V28.2051L65.0931 46.1941Z" fill="#C6C1B4"/>
<path d="M30.1266 64.1806L65.0931 46.1941V82.1696L30.1266 64.1806Z" fill="#8C8B82"/>
<path d="M100.06 64.1806L65.0931 46.1941V82.1696L100.06 64.1806Z" fill="#B9CD76"/>
<path d="M65.0931 82.1696L100.06 100.159V64.1806L65.0931 82.1696Z" fill="#7DB928"/>
<path d="M100.06 100.159L65.0931 82.1696V118.145L100.06 100.159Z" fill="#289C38"/>
<path d="M65.0931 118.145L100.06 136.134V100.159L65.0931 118.145Z" fill="#00843B"/>
<path d="M65.0931 154.123L100.06 172.109V136.134L65.0931 154.123Z" fill="#005DA9"/>
<path d="M100.06 136.134L65.0931 118.145V154.123L100.06 136.134Z" fill="#1FBADB"/>
<path d="M100.06 136.134L135.026 154.123V118.145L100.06 136.134Z" fill="#A8589E"/>
<path d="M135.026 154.123L100.06 136.134V172.109L135.026 154.123Z" fill="#5B257D"/>
<path d="M169.993 64.1806L135.026 82.1696V46.1941L169.993 64.1806Z" fill="#00707E"/>
<path d="M135.026 46.1941L169.993 28.2051V64.1806L135.026 46.1941Z" fill="#5FA4B0"/>
<path d="M169.993 136.134L135.026 154.123V118.145L169.993 136.134Z" fill="#5C57A2"/>
<path d="M135.026 118.145L169.993 100.159V136.134L135.026 118.145Z" fill="#8DA6D6"/>
</svg>
