<svg width="158" height="195" viewBox="0 0 158 195" fill="none" xmlns="http://www.w3.org/2000/svg">
<path d="M44.5294 75.7692L10 97.6933V53.8451L44.5294 75.7692Z" fill="#F8AA00"/>
<path d="M10 97.6933L44.5294 75.7692V119.614L10 97.6933Z" fill="#FFD000"/>
<path d="M44.5294 119.614L10 141.538V97.6933L44.5294 119.614Z" fill="#F07F3C"/>
<path d="M10 141.538L44.5294 119.614V163.462L10 141.538Z" fill="#E62D31"/>
<path d="M44.5294 31.9241L10 53.8451V10L44.5294 31.9241Z" fill="#C6C1B4"/>
<path d="M10 53.8451L44.5294 31.9241V75.7692L10 53.8451Z" fill="#8C8B82"/>
<path d="M79.0588 53.8451L44.5294 31.9241V75.7692L79.0588 53.8451Z" fill="#B9CD76"/>
<path d="M44.5294 75.7692L79.0588 97.6933V53.8451L44.5294 75.7692Z" fill="#7DB928"/>
<path d="M79.0588 97.6933L44.5294 75.7692V119.614L79.0588 97.6933Z" fill="#289C38"/>
<path d="M44.5294 119.614L79.0588 141.538V97.6933L44.5294 119.614Z" fill="#00843B"/>
<path d="M44.5294 163.462L79.0588 185.383V141.538L44.5294 163.462Z" fill="#005DA9"/>
<path d="M79.0588 141.538L44.5294 119.614V163.462L79.0588 141.538Z" fill="#1FBADB"/>
<path d="M79.0588 141.538L113.588 163.462V119.614L79.0588 141.538Z" fill="#A8589E"/>
<path d="M113.588 163.462L79.0588 141.538V185.383L113.588 163.462Z" fill="#5B257D"/>
<path d="M148.118 53.8451L113.588 75.7692V31.9241L148.118 53.8451Z" fill="#00707E"/>
<path d="M113.588 31.9241L148.118 10V53.8451L113.588 31.9241Z" fill="#5FA4B0"/>
<path d="M148.118 141.538L113.588 163.462V119.614L148.118 141.538Z" fill="#5C57A2"/>
<path d="M113.588 119.614L148.118 97.6933V141.538L113.588 119.614Z" fill="#8DA6D6"/>
</svg>
